2014007_C5_04_grf
version=1
nRows=15
nColumns=19
inDegrees=no
endheader
time	ground_force_1_vx	ground_force_1_vy	ground_force_1_vz	ground_force_1_px	ground_force_1_py	ground_force_1_pz	ground_force_1_mx	ground_force_1_my	ground_force_1_mz	ground_force_2_vx	ground_force_2_vy	ground_force_2_vz	ground_force_2_px	ground_force_2_py	ground_force_2_pz	ground_force_2_mx	ground_force_2_my	ground_force_2_mz
      0.39200000	      0.00000000	      0.00000000	      0.00000000	      0.00000000	      0.00000000	      0.00000000	      0.00000000	      0.00000000	      0.00000000	     -5.62355714	    458.49540830	     10.66697426	     -0.82396179	     -0.00200000	      0.21640408	      0.00000000	     -0.48429556	      0.00000000
      0.39300000	      0.00000000	      0.00000000	      0.00000000	      0.00000000	      0.00000000	      0.00000000	      0.00000000	      0.00000000	      0.00000000	     -5.15709189	    459.59399641	     10.64872015	     -0.82376499	     -0.00200000	      0.21635056	      0.00000000	     -0.50161382	      0.00000000
      0.39400000	      0.00000000	      0.00000000	      0.00000000	      0.00000000	      0.00000000	      0.00000000	      0.00000000	      0.00000000	      0.00000000	     -4.68763243	    460.71881056	     10.63668318	     -0.82356645	     -0.00200000	      0.21629680	      0.00000000	     -0.51862537	      0.00000000
      0.39500000	      0.00000000	      0.00000000	      0.00000000	      0.00000000	      0.00000000	      0.00000000	      0.00000000	      0.00000000	      0.00000000	     -4.21482488	    461.87624335	     10.63255761	     -0.82336556	     -0.00200000	      0.21624280	      0.00000000	     -0.53523053	      0.00000000
      0.39600000	      0.00000000	      0.00000000	      0.00000000	      0.00000000	      0.00000000	      0.00000000	      0.00000000	      0.00000000	      0.00000000	     -3.73966689	    463.05960417	     10.63485816	     -0.82316265	     -0.00200000	      0.21618864	      0.00000000	     -0.55149176	      0.00000000
      0.39700000	      0.00000000	      0.00000000	      0.00000000	      0.00000000	      0.00000000	      0.00000000	      0.00000000	      0.00000000	      0.00000000	     -3.26199108	    464.27513659	     10.64530201	     -0.82295706	     -0.00200000	      0.21613429	      0.00000000	     -0.56730084	      0.00000000
      0.39800000	      0.00000000	      0.00000000	      0.00000000	      0.00000000	      0.00000000	      0.00000000	      0.00000000	      0.00000000	      0.00000000	     -2.78264424	    465.51615000	     10.66233516	     -0.82274918	     -0.00200000	      0.21607983	      0.00000000	     -0.58273215	      0.00000000
      0.39900000	      0.00000000	      0.00000000	      0.00000000	      0.00000000	      0.00000000	      0.00000000	      0.00000000	      0.00000000	      0.00000000	     -2.30164966	    466.78876877	     10.68767644	     -0.82253831	     -0.00200000	      0.21602525	      0.00000000	     -0.59767371	      0.00000000
      0.40000000	      0.00000000	      0.00000000	      0.00000000	      0.00000000	      0.00000000	      0.00000000	      0.00000000	      0.00000000	      0.00000000	     -1.81969581	    468.08648109	     10.71970426	     -0.82232492	     -0.00200000	      0.21597061	     -0.00000000	     -0.61220913	     -0.00000000
      0.40100000	      0.00000000	      0.00000000	      0.00000000	      0.00000000	      0.00000000	      0.00000000	      0.00000000	      0.00000000	      0.00000000	     -1.33699441	    469.41535175	     10.76012794	     -0.82210823	     -0.00200000	      0.21591589	      0.00000000	     -0.62621895	      0.00000000
      0.40200000	      0.00000000	      0.00000000	      0.00000000	      0.00000000	      0.00000000	      0.00000000	      0.00000000	      0.00000000	      0.00000000	     -0.85405860	    470.76889873	     10.80728509	     -0.82188882	     -0.00200000	      0.21586113	     -0.00000000	     -0.63979483	     -0.00000000
      0.40300000	      0.00000000	      0.00000000	      0.00000000	      0.00000000	      0.00000000	      0.00000000	      0.00000000	      0.00000000	      0.00000000	     -0.37128902	    472.15309739	     10.86285599	     -0.82166586	     -0.00200000	      0.21580628	     -0.00000000	     -0.65281322	     -0.00000000
      0.40400000	      0.00000000	      0.00000000	      0.00000000	      0.00000000	      0.00000000	      0.00000000	      0.00000000	      0.00000000	      0.00000000	      0.11098375	    473.56161475	     10.92513800	     -0.82143999	     -0.00200000	      0.21575135	      0.00000000	     -0.66537463	      0.00000000
      0.40500000	      0.00000000	      0.00000000	      0.00000000	      0.00000000	      0.00000000	      0.00000000	      0.00000000	      0.00000000	      0.00000000	      0.59219739	    475.00029206	     10.99576335	     -0.82121036	     -0.00200000	      0.21569631	      0.00000000	     -0.67735268	      0.00000000
      0.40600000	      0.00000000	      0.00000000	      0.00000000	      0.00000000	      0.00000000	      0.00000000	      0.00000000	      0.00000000	      0.00000000	      1.07222644	    476.46296024	     11.07301600	     -0.82097763	     -0.00200000	      0.21564117	      0.00000000	     -0.68885573	      0.00000000
